<svg version="1.1" viewBox="0 0 2048 1189" width="1280" height="1280"
    xmlns="http://www.w3.org/2000/svg">
    <path transform="translate(965,227)"
        d="m0 0h44l21 6 12 5 14 7 11 8 6 4 18 18h-3l-13-5-12-3h-19l-10 3-5 3h-2v-2l14-9 7-1-2-3-12-2-1-1h-48l-1 1-15 3-16 6-9 4-12 7-5 5-5 3-15 15-4 6-4 5-7 13-5 8-2 7-1 1-1 8-1 1-1 11-2 2-1 14h-2v19l-2 3v34h3l4-6 27-27 6-4 14-10 14-8 12-6 25-8h6l4-2v3l-13 7-10 7-12 8-8 7-8 6-16 16-3 6-5 5-3 5-5 6-3 5-10 19-9 19-2 5-2 7-2 9-1 1-2 10-1 3-2 10-1 4h-2l-3-7-4-13-5-15-1-1-1-10-1-1-2-12-1-2-1-15-1-1v-76l1-1 1-13 2-7 3-17 1-2-15 2-3 1-22 1-1 1-21 2-17 2-2 1-13 1-11 2-9 1-1 1-24 4-35 8-24 7-12 5-16 8-16 9-17 9-10 7-16 12-9 6-3 4h-2l-2 4-3 1-2 4-11 11h-2l-2 4-3 5-7 8-7 11-5 8-8 17-4 7-4 14-1 1-1 8-2 6-1 7-1 1-1 18-1 1-2 194-3 6-7 7-5 2h-9l-8-3-12-12v-212l2-5 1-11 4-16 9-27 3-6 3-9 4-5 7-14 6-9 3-5 4-5 8-11 7-9 9-11 10-8 8-7 8-6 15-10 16-9 18-9 20-8 11-4 16-4 1-1 9-2 10-2 1-1 10-1 8-2 7-2 12-1 9-2 12-1 1-1h85l5 2 15 1 1 1 11 1 14 4 11 1 2-9 6-17 6-11 6-10 9-13 21-21 13-9 10-6 12-5 9-2 12-2z"
        fill="#C01B1D" />
    <path transform="translate(1047,525)"
        d="m0 0h40l1 1v248h-39v-22l-8 7-5 4-10 6-11 4-9 2-8 2h-20l-7-2-15-3-17-9-5-3-21-21-10-21-1-7-2-4-1-11-1-1v-20l2-4 1-12 5-15 7-12 6-8 14-14 13-8 13-4 1-1 9-1 7-2h29l2 1v2h9l12 5 11 8 6 6 1-90zm-64 104-16 6-10 7-7 8-7 14-2 12-1 1v15l1 1 2 12 9 17 9 9 13 7 6 2h28l12-5 10-7 7-8 6-10 3-8v-35l-9-17-6-8-6-4-14-7-5-2z"
        fill="#C0191C" />
    <path transform="translate(237,540)"
        d="m0 0h115l5 2 10 1 1 1 10 2 5 3 9 3 11 7 16 16 8 14 3 12 2 2 1 16 1 1v6l-1 1-1 18-2 2-2 7-8 16-6 8-7 7-16 9-12 6-9 3-9 1-1 1-78 1-1 68h-44zm44 37v94h59l5-2 10-1 12-5 8-5 7-7 5-10 3-9v-17l-2-4-2-8-8-12-8-6-13-6-8-2z"
        fill="#C0181B" />
    <path transform="translate(608,587)"
        d="m0 0h28l7 2 16 6 12 7v2l5 2 10 8v-24l2-1h34l1 1v184h-37v-27h-2v2l-7 6-5 5-6 5-14 7-15 4-3 1h-26l-7-2-12-4-15-8-8-6-11-11-3-5-10-19-4-10-1-10-2-4v-35l2-3 1-10 5-13 7-12 6-8 5-6h2v-2l10-8 10-6 16-6 8-1zm14 32-7 2-17 8-13 13-6 10-4 10v38l5 12 5 8 4 6 9 9 16 8h8l3 2h10l3-2 8-1 8-3 7-4 10-9 7-11 5-10 2-12 1-1v-20l-2-4-1-9-9-17-14-14-8-4-17-5z"
        fill="#C01A1D" />
    <path transform="translate(1451,136)"
        d="m0 0h32l-6 7-5 3-8 7-6 4-8 8-5 3-8 7h-3l-1 5h19l10 4 9 3 17 9 11 8 6 5 8 7 7 8 8 11 8 14 5 12 6 17 1 7 1 1 1 16 2 2v33l-2 6-1 12-1 1-1 8-10 25-8 15-6 9-6 8-2 3h-2l-1 3h-2v2h-2l-1 5-7 7-7 4-11 11-5 3-10 7-14 8-15 7-12 5-16 5-16 4-17 2-1 1h-76l7 8 8 8 3 5 7 10 5 11v14l-4 1-8-15-9-12-14-14-10-7-3-3-10-5-8-5-6-2v-1l29-1 7-2h31v-2l19-1 7-2 8-1 1-1 11-1 14-4 8-1 9-4 12-3 13-5 7-4 7-2 13-8 7-4 12-8 12-11 1-2h2l2-4 5-6 10-15 11-22 5-15 3-11 1-10 1-1v-46l-1-1-1-10-2-5-2-8-6-15-6-11-8-11-15-15-14-9-13-6-15-5-11-1-2-1h-28l-1 1-15 2-9 2-12 5-12 7-12 9-12 12-3 6-5 8-8 17-2 5-1 8-1 1v36l4 11 9 17 11 11 17 10 7 2 10 2v2h-14l-7-2-12-4-9-5-14-14-8-16-3-8-1-10-1-1v-41l1-1 2-12 3-8 4-10 13-19 12-12 14-9 11-6 12-5 16-5 8-1 1-1h17l1-2 6 2-11-26-4-10v-3h40l-6 16-6 13-2 9 9-19 5-12 6-11z"
        fill="#C11C1F" />
    <path transform="translate(1086,200)"
        d="m0 0h58l16 4 12 4 20 10 11 8 6 4 18 18 14 20 5 9 5 8 6 15 4 8 7 21 1 8 8 20 8 16 6 7 7 8 7 6 9 7 16 8 6 2 8 1 1 1h29l1-1 10-1 10-4 14-4 11-7 10-9 8-9 8-14 6-12 5-15 1-10 2-5v-37l-7-16-7-8-8-8-15-8-14-1-5-1-1 1-15 1-17 6-15 8-7 7-6 9-3 5-4 9-2 9-1 2v13l1 3v7l-2-3-2-7v-28l5-13 6-9 3-3 3-5 6-4 8-7 14-8 8-4 12-3h26l12 3 12 5 8 5 5 4 7 6 4 6 4 5 5 7 5 11 2 6 1 8 2 2v38l-2 2-1 8-3 8-3 5-2 7-3 6-5 8-6 8-4 6-21 21-5 3-5 4-9 5-10 6-10 4-10 3-9 1-1 1h-24l-19-5-19-8-14-7-11-8-13-13-7-10-4-5-7-14-4-11-4-10-2-6-4-18-1-1-2-10-4-16-5-12-9-17-5-6-7-8-16-16-5-3-13-8-16-8-24-8-18-3-17-2h-21l-1 1-16 1-7 2-10 1-2 1h-7l1-2 5-2 9-2 8-3 9-2 2-1 10-1z"
        fill="#C11C1F" />
    <path transform="translate(866,594)"
        d="m0 0h12v40l-3-2h-9l-14 3-8 3-7 4-7 7-6 11-4 10-1 15-1 1-1 88h-40v-176l1-1h39v20l-1 2 5-3 11-11 12-6 6-2z"
        fill="#C01A1D" />
    <path transform="translate(1805,515)"
        d="m0 0 11 1v238l-1 1h-11v-42h-2l-2 5-7 9-9 10-8 6-15 7-5 2-16 3h-19l-15-3-8-4-7-3-15-10-7-7-6-9-8-17-3-13-1-1v-34l1-1 1-10 4-8 4-10 7-10 15-15 23-11 5-2 15-1 6-2 3 2 16 1 6 2 10 4 11 6 6 5 7 6 10 15 1 4h2v-113zm-89 84-12 5-11 6-10 9-8 9-7 14-4 16-1 1v24l1 1 2 9 4 11 9 14 12 12 14 8 6 2 8 1 1 1h29l8-3 11-4 11-8 11-11 8-15 3-9 3-12v-18l-2-5-1-10-4-8-3-7-6-8-3-3-2-4-8-6-5-3-12-6-9-3z"
        fill="#C22023" />
    <path transform="translate(1229,528)"
        d="m0 0h29l1 1 11 1 10 3 12 5 17 9 8 6 5 5v2l-5 5-4 2-4-4-7-4-11-7-15-6-23-5h-20l-24 6-11 4-12 7-11 8-14 14-10 17-7 17-2 12-1 1v29l1 1 1 10 5 12 10 19 8 10 12 12 13 8 18 9 7 1 1 1 8 1 1 1h35l1-1 9-2 15-5 17-9 6-4 1-76h12l1 1v33l-1 49-6 4-5 4-11 7-16 6-5 2-16 4-9 1h-26l-16-3-21-8-15-9-7-6-5-3-12-12-3-5-4-5-5-9-3-5-6-16-2-10-1-1-1-19 1-25 1-1 2-9 4-11 9-17 7-9 21-21 13-8 16-8 17-5 10-1z"
        fill="#C21F22" />
    <path transform="translate(684,846)"
        d="m0 0h14l2 8 3 6 1 7 4 8 22 66 4 13 2 7h1l2-7 5-13 12-36 10-28 9-28 3-3h11l3 4 4 13 6 18 6 16 6 17 4 13 3 8 4 14 3 8 2 4 7-21 5-12 25-75 2-7h14l1 2-5 13-6 17-3 8-7 21-6 17-4 13-11 33-2 5-1 6-2 1h-14l-2-3-8-26-4-9-2-7-4-12-3-8-7-21-7-22-3-5-6 16-4 10-8 26-4 9-2 7-3 8-2 7-4 12-4 9-2 7-4 2h-11l-4-8-3-11-4-10-4-13-6-17-4-13-13-38-8-25z"
        fill="#C11E21" />
    <path transform="translate(1437,587)"
        d="m0 0h35l10 4 11 4 12 8 11 10 9 13 5 11 5 16v36l-2 5-3 12-6 10-4 6-6 8-7 7-13 8-17 7-18 3h-13l-11-2-7-2-11-4-11-6-8-6-6-5-7-10-6-10-5-13-2-7v-41l8-20 6-9 3-5 12-12 13-8 12-5 10-2zm5 12-14 4-14 7-10 7-5 5-4 7-6 11-4 13-1 1v33l4 10 3 9 5 8 16 16 14 8 6 2 10 1 1 1h20l1-1 11-1 12-5 9-6 15-15 6-11 5-15v-34l-1-1-2-10-8-15-6-8-8-7-10-6-10-5-14-3z"
        fill="#C11F21" />
    <path transform="translate(1459,846)"
        d="m0 0h62l17 5 14 8 6 8 6 12v26l-5 12-12 12-10 5h-2l5 10 7 9 7 10 12 16 1 2-6 1h-10l-6-8-4-7-5-6-8-12-6-8-3-3h-5l-7 2h-34v41l-10 1-5-1v-134zm14 12v69l1 1h18l25-1 1-1 10-2 8-3 9-7 4-9v-27l-6-9-10-6-4-2-8-1-6-2z"
        fill="#C11D20" />
    <path transform="translate(467,846)"
        d="m0 0h93v12h-79v50h72l-1 10-2 2h-69v49h81l1 3-1 9-7 1h-88l-1-1v-134z" fill="#C11F22" />
    <path transform="translate(1015,846)"
        d="m0 0h90v12h-76v50h69v11l-1 1h-68v49h78l1 1v11l-8 1h-85l-1-1v-134z" fill="#C11E21" />
    <path transform="translate(259,846)"
        d="m0 0h64v108l-5 12-13 13-6 2-8 1h-18l-10-4-11-7-3-3-2-6 5-5h2v-2h3l7 8 8 5h24l6-4 5-10 1-96h-49z"
        fill="#C11C1F" />
    <path transform="translate(1678,846)"
        d="m0 0h14l5 6 5 9 10 15 4 7 11 19 12 18 5-5 6-10 11-18 4-7 7-11 12-20 3-3h11l1 3-6 10-7 11-6 9-6 11-8 13-4 6-7 12-5 8-2 4-1 48-7 1h-7l-1-1-1-48-4-5-5-9-8-13-7-12-9-14-18-30z"
        fill="#C11D20" />
    <path transform="translate(1588,515)" d="m0 0 11 1v238l-1 1h-11l-1-37v-197z" fill="#C42729" />
    <path transform="translate(1244,846)" d="m0 0h14v123h76l1 1v11l-2 1h-89l-1-21v-101z"
        fill="#C4292C" />
    <path transform="translate(1146,343)"
        d="m0 0h13l6 4 4 6 1 9-4 8-5 5-5 2h-8l-8-5-5-6v-11l4-8 5-3z" fill="#C01B1E" />
    <path transform="translate(1451,136)"
        d="m0 0h32l-6 7-5 3-8 7-6 4-8 8-5 3-8 7h-3l-1 2-1-2 10-21 5-12z" fill="#C22023" />
    <path transform="translate(1362,136)" d="m0 0h32l3 5 7 16 5 11 2 7-5-1-7-7-6-4-8-7-6-4-8-8-5-3z"
        fill="#C11F22" />
    <path transform="translate(1429,101)" d="m0 0h31l-2 5-7 9-8 11-2-1-12-22z" fill="#C22023" />
    <path transform="translate(1387,101)" d="m0 0h31l-2 4-9 13-6 8-3-3-10-18z" fill="#C21F22" />
    <path transform="translate(1422,104)" d="m0 0h2l9 17 3 7h-29l2-6 8-11z" fill="#C11E21" />
    <path transform="translate(1379,105)" d="m0 0 3 3 8 14 2 6h-30l7-11 5-6z" fill="#C11C1F" />
    <path transform="translate(1465,106)" d="m0 0 4 2 8 13 3 5v2h-29l1-5 9-12z" fill="#C11D20" />
    <path transform="translate(1056,208)" d="m0 0m-3 1 3 1 2 2-10 2h-7l1-2 5-2z" fill="#CD4B4E" />
</svg>